<svg version="1.1" viewBox="0.0 0.0 1000.0 1000.0" fill="none" stroke="none" stroke-linecap="square" stroke-miterlimit="10" xmlns:xlink="http://www.w3.org/1999/xlink" xmlns="http://www.w3.org/2000/svg"><clipPath id="p.0"><path d="m0 0l1000.0 0l0 1000.0l-1000.0 0l0 -1000.0z" clip-rule="nonzero"/></clipPath><g clip-path="url(#p.0)"><path fill="#000000" fill-opacity="0.0" d="m0 0l1000.0 0l0 1000.0l-1000.0 0z" fill-rule="evenodd"/><path fill="#000000" d="m41.98718 40.94488l0 0c0 -22.613234 18.33165 -40.94488 40.94488 -40.94488l0 0l0 0c10.859261 0 21.27375 4.313823 28.952408 11.992478c7.67865 7.6786547 11.992477 18.093147 11.992477 28.952404l0 229.73227c0 22.61325 -18.33165 40.944885 -40.944885 40.944885l0 0l0 0c-22.613232 0 -40.94488 -18.331635 -40.94488 -40.944885z" fill-rule="evenodd"/><path fill="#000000" d="m187.70871 40.94488l0 0c0 -22.613234 18.33165 -40.94488 40.944885 -40.94488l0 0l0 0c10.859253 0 21.273743 4.313823 28.952393 11.992478c7.67865 7.6786547 11.992493 18.093147 11.992493 28.952404l0 229.73227c0 22.61325 -18.331665 40.944885 -40.944885 40.944885l0 0l0 0c-22.613235 0 -40.944885 -18.331635 -40.944885 -40.944885z" fill-rule="evenodd"/><path fill="#000000" d="m625.6249 42.00954l0 0c22.61322 0 40.944885 18.33165 40.944885 40.94488l0 0l0 0c0 10.859261 -4.313843 21.27375 -11.992493 28.952408c-7.67865 7.67865 -18.09314 11.992477 -28.952393 11.992477l-229.70078 0c-22.61325 0 -40.944885 -18.33165 -40.944885 -40.944885l0 0l0 0c0 -22.613232 18.331635 -40.94488 40.944885 -40.94488z" fill-rule="evenodd"/><path fill="#000000" d="m625.6249 187.73106l0 0c22.61322 0 40.944885 18.33165 40.944885 40.944885l0 0l0 0c0 10.859253 -4.313843 21.273743 -11.992493 28.952408c-7.67865 7.67865 -18.09314 11.992462 -28.952393 11.992462l-229.70078 0c-22.61325 0 -40.944885 -18.331635 -40.944885 -40.94487l0 0l0 0c0 -22.613235 18.331635 -40.944885 40.944885 -40.944885z" fill-rule="evenodd"/><path fill="#000000" d="m396.97375 395.93146l0 0c0 -22.61322 18.331665 -40.944885 40.944885 -40.944885l0 0l0 0c10.859253 0 21.273743 4.313843 28.952423 11.992493c7.67865 7.67865 11.992462 18.09314 11.992462 28.952393l0 229.7323c0 22.61322 -18.331635 40.944885 -40.944885 40.944885l0 0l0 0c-22.61322 0 -40.944885 -18.331665 -40.944885 -40.944885z" fill-rule="evenodd"/><path fill="#000000" d="m542.6953 395.93146l0 0c0 -22.61322 18.331604 -40.944885 40.944885 -40.944885l0 0l0 0c10.859253 0 21.273743 4.313843 28.952393 11.992493c7.67865 7.67865 11.992493 18.09314 11.992493 28.952393l0 229.7323c0 22.61322 -18.331665 40.944885 -40.944885 40.944885l0 0l0 0c-22.613281 0 -40.944885 -18.331665 -40.944885 -40.944885z" fill-rule="evenodd"/><path fill="#000000" d="m270.6383 396.99612l0 0c22.61322 0 40.944885 18.331635 40.944885 40.944885l0 0l0 0c0 10.859253 -4.313843 21.273743 -11.992493 28.952393c-7.67865 7.67865 -18.09314 11.992493 -28.952393 11.992493l-229.70079 0c-22.613234 0 -40.94488 -18.331665 -40.94488 -40.944885l0 0l0 0c0 -22.61325 18.331648 -40.944885 40.94488 -40.944885z" fill-rule="evenodd"/><path fill="#000000" d="m270.6383 542.71765l0 0c22.61322 0 40.944885 18.331665 40.944885 40.944885l0 0l0 0c0 10.859253 -4.313843 21.273743 -11.992493 28.952393c-7.67865 7.67865 -18.09314 11.992493 -28.952393 11.992493l-229.70079 0c-22.613234 0 -40.94488 -18.331665 -40.94488 -40.944885l0 0l0 0c0 -22.61322 18.331648 -40.944885 40.94488 -40.944885z" fill-rule="evenodd"/><path fill="#000000" d="m730.404 40.94488l0 0c0 -22.613234 18.331665 -40.94488 40.944885 -40.94488l0 0l0 0c10.859253 0 21.273743 4.313823 28.952393 11.992478c7.67865 7.6786547 11.992493 18.093147 11.992493 28.952404l0 229.73227c0 22.61325 -18.331665 40.944885 -40.944885 40.944885l0 0l0 0c-22.61322 0 -40.944885 -18.331635 -40.944885 -40.944885z" fill-rule="evenodd"/><path fill="#000000" d="m876.12555 40.94488l0 0c0 -22.613234 18.331604 -40.94488 40.944824 -40.94488l0 0l0 0c10.859314 0 21.273804 4.313823 28.952454 11.992478c7.67865 7.6786547 11.992432 18.093147 11.992432 28.952404l0 229.73227c0 22.61325 -18.331604 40.944885 -40.944885 40.944885l0 0l0 0c-22.61322 0 -40.944824 -18.331635 -40.944824 -40.944885z" fill-rule="evenodd"/><path fill="#000000" d="m959.0551 396.99612l0 0c22.61322 0 40.944885 18.331635 40.944885 40.944885l0 0l0 0c0 10.859253 -4.313843 21.273743 -11.992493 28.952393c-7.67865 7.67865 -18.09314 11.992493 -28.952393 11.992493l-229.7008 0c-22.61322 0 -40.944885 -18.331665 -40.944885 -40.944885l0 0l0 0c0 -22.61325 18.331665 -40.944885 40.944885 -40.944885z" fill-rule="evenodd"/><path fill="#000000" d="m959.0551 542.71765l0 0c22.61322 0 40.944885 18.331665 40.944885 40.944885l0 0l0 0c0 10.859253 -4.313843 21.273743 -11.992493 28.952393c-7.67865 7.67865 -18.09314 11.992493 -28.952393 11.992493l-229.7008 0c-22.61322 0 -40.944885 -18.331665 -40.944885 -40.944885l0 0l0 0c0 -22.61322 18.331665 -40.944885 40.944885 -40.944885z" fill-rule="evenodd"/><path fill="#000000" d="m52.765354 729.38403l0 0c0 -22.61322 18.331646 -40.944885 40.94488 -40.944885l0 0l0 0c10.859261 0 21.27375 4.313843 28.952408 11.992493c7.67865 7.67865 11.992477 18.09314 11.992477 28.952393l0 229.7323c0 22.61322 -18.33165 40.944885 -40.944885 40.944885l0 0l0 0c-22.613235 0 -40.94488 -18.331665 -40.94488 -40.944885z" fill-rule="evenodd"/><path fill="#000000" d="m198.48688 729.38403l0 0c0 -22.61322 18.33165 -40.944885 40.944885 -40.944885l0 0l0 0c10.859253 0 21.273743 4.313843 28.952393 11.992493c7.6786804 7.67865 11.992493 18.09314 11.992493 28.952393l0 229.7323c0 22.61322 -18.331665 40.944885 -40.944885 40.944885l0 0l0 0c-22.613235 0 -40.944885 -18.331665 -40.944885 -40.944885z" fill-rule="evenodd"/><path fill="#000000" d="m636.4031 730.4487l0 0c22.61322 0 40.944885 18.331665 40.944885 40.944885l0 0l0 0c0 10.859253 -4.313843 21.273743 -11.992493 28.952393c-7.67865 7.67865 -18.09314 11.992493 -28.952393 11.992493l-229.7008 0c-22.61322 0 -40.944885 -18.331665 -40.944885 -40.944885l0 0l0 0c0 -22.61322 18.331665 -40.944885 40.944885 -40.944885z" fill-rule="evenodd"/><path fill="#000000" d="m636.4031 876.1702l0 0c22.61322 0 40.944885 18.331665 40.944885 40.944885l0 0l0 0c0 10.859253 -4.313843 21.273743 -11.992493 28.952393c-7.67865 7.67865 -18.09314 11.992493 -28.952393 11.992493l-229.7008 0c-22.61322 0 -40.944885 -18.331665 -40.944885 -40.944885l0 0l0 0c0 -22.61322 18.331665 -40.944885 40.944885 -40.944885z" fill-rule="evenodd"/><path fill="#000000" d="m741.1822 729.38403l0 0c0 -22.61322 18.331604 -40.944885 40.944885 -40.944885l0 0l0 0c10.859253 0 21.273743 4.313843 28.952393 11.992493c7.67865 7.67865 11.992493 18.09314 11.992493 28.952393l0 229.7323c0 22.61322 -18.331665 40.944885 -40.944885 40.944885l0 0l0 0c-22.613281 0 -40.944885 -18.331665 -40.944885 -40.944885z" fill-rule="evenodd"/><path fill="#000000" d="m886.9037 729.38403l0 0c0 -22.61322 18.331665 -40.944885 40.944885 -40.944885l0 0l0 0c10.859253 0 21.273743 4.313843 28.952393 11.992493c7.67865 7.67865 11.992493 18.09314 11.992493 28.952393l0 229.7323c0 22.61322 -18.331665 40.944885 -40.944885 40.944885l0 0l0 0c-22.61322 0 -40.944885 -18.331665 -40.944885 -40.944885z" fill-rule="evenodd"/></g></svg>